<?xml version="1.0" encoding="UTF-8"?>
<!DOCTYPE svg PUBLIC "-//W3C//DTD SVG 1.1//EN" "http://www.w3.org/Graphics/SVG/1.1/DTD/svg11.dtd">
<svg xmlns="http://www.w3.org/2000/svg" version="1.1" width="512px" height="512px" style="shape-rendering:geometricPrecision; text-rendering:geometricPrecision; image-rendering:optimizeQuality; fill-rule:evenodd; clip-rule:evenodd" xmlns:xlink="http://www.w3.org/1999/xlink">
<g><path style="opacity:0.997" fill="#45a085" d="M 192.5,439.5 C 205.409,396.345 222.742,355.011 244.5,315.5C 285.527,317.192 326.194,314.026 366.5,306C 371.977,304.845 377.144,303.012 382,300.5C 385.165,292.825 382.665,288.492 374.5,287.5C 335.022,297.582 295.022,300.915 254.5,297.5C 275.419,260.818 299.419,226.318 326.5,194C 359.604,195.899 391.937,191.899 423.5,182C 431.377,179.6 438.877,176.434 446,172.5C 449.148,165.127 446.815,160.793 439,159.5C 417.561,168.068 395.394,173.901 372.5,177C 362.167,177.667 351.833,177.667 341.5,177C 368.471,146.026 397.971,117.859 430,92.5C 432.856,87.0799 431.689,82.9132 426.5,80C 423.697,79.245 421.03,79.5783 418.5,81C 404.036,93.1281 389.87,105.628 376,118.5C 375.29,105.049 377.79,92.2157 383.5,80C 382.25,73.0994 378.25,70.7661 371.5,73C 368.208,75.7414 366.041,79.2414 365,83.5C 362.864,89.7086 361.198,96.042 360,102.5C 359.607,112.849 359.607,123.182 360,133.5C 326.271,167.543 295.938,204.21 269,243.5C 264.811,235.737 262.977,227.404 263.5,218.5C 263.168,207.163 265.668,196.496 271,186.5C 271.548,179.047 268.048,175.547 260.5,176C 254.929,181.672 251.429,188.505 250,196.5C 245.156,217.735 247.489,238.069 257,257.5C 257.667,259.167 257.667,260.833 257,262.5C 222.549,317.07 195.382,375.07 175.5,436.5C 163.859,355.576 132.359,283.576 81,220.5C 78.1667,210 82,206.167 92.5,209C 136.283,262.399 166.449,322.899 183,390.5C 183.333,362.167 183.667,333.833 184,305.5C 184.868,296.817 185.868,288.151 187,279.5C 189.836,266.159 192.669,252.825 195.5,239.5C 223.847,151.655 279.847,88.1553 363.5,49C 403.001,31.6252 444.334,23.1252 487.5,23.5C 487.667,69.1679 487.5,114.835 487,160.5C 475.255,267.234 423.421,347.734 331.5,402C 288.246,425.897 241.912,438.397 192.5,439.5 Z"/></g>
<g><path style="opacity:0.999" fill="#347965" d="M 192.5,439.5 C 191.699,454.122 191.199,468.789 191,483.5C 189.471,486.516 186.971,487.849 183.5,487.5C 180.029,487.849 177.529,486.516 176,483.5C 175.5,469.171 175.333,454.837 175.5,440.5C 175.5,439.167 175.5,437.833 175.5,436.5C 195.382,375.07 222.549,317.07 257,262.5C 257.667,260.833 257.667,259.167 257,257.5C 247.489,238.069 245.156,217.735 250,196.5C 251.429,188.505 254.929,181.672 260.5,176C 268.048,175.547 271.548,179.047 271,186.5C 265.668,196.496 263.168,207.163 263.5,218.5C 262.977,227.404 264.811,235.737 269,243.5C 295.938,204.21 326.271,167.543 360,133.5C 359.607,123.182 359.607,112.849 360,102.5C 361.198,96.042 362.864,89.7086 365,83.5C 366.041,79.2414 368.208,75.7414 371.5,73C 378.25,70.7661 382.25,73.0994 383.5,80C 377.79,92.2157 375.29,105.049 376,118.5C 389.87,105.628 404.036,93.1281 418.5,81C 421.03,79.5783 423.697,79.245 426.5,80C 431.689,82.9132 432.856,87.0799 430,92.5C 397.971,117.859 368.471,146.026 341.5,177C 351.833,177.667 362.167,177.667 372.5,177C 395.394,173.901 417.561,168.068 439,159.5C 446.815,160.793 449.148,165.127 446,172.5C 438.877,176.434 431.377,179.6 423.5,182C 391.937,191.899 359.604,195.899 326.5,194C 299.419,226.318 275.419,260.818 254.5,297.5C 295.022,300.915 335.022,297.582 374.5,287.5C 382.665,288.492 385.165,292.825 382,300.5C 377.144,303.012 371.977,304.845 366.5,306C 326.194,314.026 285.527,317.192 244.5,315.5C 222.742,355.011 205.409,396.345 192.5,439.5 Z"/></g>
<g><path style="opacity:0.996" fill="#6bc38f" d="M 195.5,239.5 C 192.669,252.825 189.836,266.159 187,279.5C 185.868,288.151 184.868,296.817 184,305.5C 183.667,333.833 183.333,362.167 183,390.5C 166.449,322.899 136.283,262.399 92.5,209C 82,206.167 78.1667,210 81,220.5C 132.359,283.576 163.859,355.576 175.5,436.5C 175.5,437.833 175.5,439.167 175.5,440.5C 174.733,439.828 174.066,438.995 173.5,438C 89.2337,414.065 39.7337,358.899 25,272.5C 23.5474,232.194 23.0474,191.861 23.5,151.5C 71.4788,148.489 114.812,160.989 153.5,189C 170.697,203.347 184.697,220.18 195.5,239.5 Z"/></g>
</svg>
